# xmcd
#
# Track frame offsets: 
#        150
#        24934
#        54534
#        75149
#        105251
#        123306
#        148151
#        167063
#        194182
#        213662
#        238821
#
# Disc length: 3456 seconds
#
# Revision: 0
# Processed by: cddbd v1.5.2PL0 Copyright (c) Steve Scherf et al.
# Submitted via: ExactAudioCopyFreeDBPlugin 1.0
#
DISCID=940d7e0b
DTITLE=Le Quyen - Live Show Le Quyen - Vu Thanh An
DYEAR=1900
DGENRE=Country
TTITLE0=Le Quyen ft. Quang Dung - Anh Den Tham Em Dem Ba Muoi
TTITLE1=Quang Dung - Tinh Khuc Thu Nhat
TTITLE2=Bai Khong Ten So 1
TTITLE3=Bai Khong Ten So 2
TTITLE4=Bai Khong Ten So 3
TTITLE5=Bai Khong Ten So 4
TTITLE6=Bai Khong Ten So 5
TTITLE7=Bai Khong Ten So 10
TTITLE8=Tuan Ngoc - Bai Khong Ten So 8
TTITLE9=Tuan Ngoc ft. Le Quyen - Doi Da Vang
TTITLE10=Vu Thanh An, Top Ca - Ngay Mai Roi Minh Cung Gia
EXTD=
EXTT0=
EXTT1=
EXTT2=
EXTT3=
EXTT4=
EXTT5=
EXTT6=
EXTT7=
EXTT8=
EXTT9=
EXTT10=
PLAYORDER=
